:SAMPLES-PER-SECOND 30
:FRAME-RANGE 1-2045
:FULLY-SPECIFIED
:DEGREES
1918
root  -0.681958 38.6226 34.2002 9.13562 73.2175 0.702759
RightUpLeg  -22.3795 3.96931 -10.2552
RightLeg  29.3724 -0.385996 -0.465586
RightFoot  -19.3389 0.822327 13.5901
RightToes  -5.28216e-011 1.2921e-014 -6.02303e-014
Spine  17.4212 3.20095 11.9933
Spine1  0.363163 4.99372 1.12303
HEad  -12.7941 23.4781 -31.4056
LeftShoulder1  1.27886 -6.9312 -4.86373
LeftArm  -37.437 -33.0835 -11.8084
LeftForeArm  -33.2333 -17.746 -4.27901
LeftHand  0.287285 0.345326 -6.7156
RightShoulder  3.73452 11.1639 19.4972
RightArm  36.8966 11.9367 91.5241
RightForeArm  -33.0534 56.6483 19.6627
RightHand  9.22273 -19.9231 -64.1964
LeftUpLeg  -32.2016 11.8005 -2.53779
LeftLeg  20.7726 14.8754 6.37816
LeftFoot  -10.7429 0.123278 -11.2875
LeftToes  9.43379e-011 5.24309e-011 -4.66411e-011
1919
root  -0.352183 37.8125 34.2832 12.0901 75.9008 4.34363
RightUpLeg  -26.1707 3.73355 -12.3439
RightLeg  30.5794 2.34419 1.26296
RightFoot  -18.4575 1.05759 18.8783
RightToes  -5.28216e-011 1.2921e-014 -6.02303e-014
Spine  18.6991 2.48598 13.2317
Spine1  0.954296 5.18914 -1.55891
HEad  -13.0102 23.0505 -29.9322
LeftShoulder1  1.05767 -5.92481 -3.69412
LeftArm  -38.7888 -32.2588 -17.4753
LeftForeArm  -33.11 -19.771 -4.90497
LeftHand  0.271953 0.301291 -6.29879
RightShoulder  3.40813 9.63321 20.0671
RightArm  36.8824 12.5837 93.615
RightForeArm  -27.1786 57.2419 19.8147
RightHand  11.5767 -24.0683 -62.7503
LeftUpLeg  -36.5007 15.4841 -3.69621
LeftLeg  33.0212 19.7668 13.6514
LeftFoot  -12.1503 0.00077402 -10.156
LeftToes  9.43379e-011 5.24309e-011 -4.66411e-011
1920
root  -0.0251982 36.6853 34.4404 14.2128 77.552 7.64612
RightUpLeg  -30.6236 3.33226 -13.8778
RightLeg  40.0904 2.9975 2.42771
RightFoot  -16.8469 0.632509 15.4584
RightToes  -5.28216e-011 1.2921e-014 -6.02303e-014
Spine  20.2257 2.9924 13.3156
Spine1  0.871875 6.02659 -2.48484
HEad  -11.8695 21.9175 -28.0242
LeftShoulder1  1.18417 -6.65469 -4.18127
LeftArm  -39.3929 -32.1632 -20.3952
LeftForeArm  -33.3332 -21.3301 -5.57478
LeftHand  0.261088 0.344406 -6.10732
RightShoulder  3.39627 9.51352 20.2318
RightArm  33.9032 13.3726 95.2102
RightForeArm  -25.6261 56.9244 19.4773
RightHand  10.3483 -22.9007 -60.4302
LeftUpLeg  -39.9026 11.0562 1.24844
LeftLeg  44.0771 12.6759 13.2132
LeftFoot  -10.9358 0.0876597 -6.26445
LeftToes  9.43379e-011 5.24309e-011 -4.66411e-011
1921
root  0.127024 35.2304 34.664 16.1943 80.4156 12.3795
RightUpLeg  -32.1135 -0.239121 -14.0702
RightLeg  51.5656 3.52631 4.39781
RightFoot  -22.5043 1.13678 13.1495
RightToes  -5.28216e-011 1.2921e-014 -6.02303e-014
Spine  23.7536 3.13384 11.8369
Spine1  0.0142915 6.30417 -2.52309
HEad  -12.0199 19.8965 -27.0552
LeftShoulder1  1.43681 -7.27973 -6.08273
LeftArm  -40.2316 -34.1854 -21.2833
LeftForeArm  -33.0762 -22.5739 -6.08731
LeftHand  0.252176 0.548885 -6.18209
RightShoulder  3.55548 9.98478 20.5109
RightArm  32.1373 16.0631 96.0706
RightForeArm  -23.4611 53.8067 17.1642
RightHand  7.38127 -19.2084 -55.7529
LeftUpLeg  -42.0173 3.89873 8.74626
LeftLeg  52.0432 3.71259 5.57801
LeftFoot  -11.5912 0.0550267 -6.58185
LeftToes  9.43379e-011 5.24309e-011 -4.66411e-011
1922
root  0.34681 34.0947 34.7154 22.1261 83.1218 19.5508
RightUpLeg  -32.8353 -2.06925 -14.8951
RightLeg  58.6385 3.06347 4.96194
RightFoot  -26.9814 1.64646 13.2759
RightToes  -5.28216e-011 1.2921e-014 -6.02303e-014
Spine  26.329 3.25854 10.879
Spine1  -0.457773 6.38746 -2.38529
HEad  -14.0644 17.4345 -26.4778
LeftShoulder1  1.584 -8.04753 -6.50815
LeftArm  -42.1097 -36.37 -22.4126
LeftForeArm  -32.2445 -23.1441 -6.26577
LeftHand  0.233805 0.82026 -6.12418
RightShoulder  3.70953 10.5618 20.5093
RightArm  31.8125 19.2898 94.9534
RightForeArm  -9.87329 50.4629 14.3632
RightHand  1.88542 -10.2706 -42.2711
LeftUpLeg  -44.0605 -3.43276 16.2722
LeftLeg  54.7543 1.55132 2.87639
LeftFoot  -12.1478 0.0230555 -7.04835
LeftToes  9.43379e-011 5.24309e-011 -4.66411e-011
1923
root  0.535473 33.0724 34.6891 28.2238 85.5868 25.2557
RightUpLeg  -34.8758 -2.55379 -15
RightLeg  64.4565 1.98915 3.9601
RightFoot  -30.1981 2.18029 14.3074
RightToes  -5.28216e-011 1.2921e-014 -6.02303e-014
Spine  27.3704 3.08712 9.81876
Spine1  0.184868 6.31215 -3.33828
HEad  -17.0535 16.0289 -26.2953
LeftShoulder1  1.55569 -8.2645 -5.93771
LeftArm  -43.2316 -39.151 -23.0366
LeftForeArm  -33.5944 -22.6273 -6.08781
LeftHand  0.243155 0.841844 -6.53344
RightShoulder  3.6013 10.2003 20.417
RightArm  28.0443 20.8064 93.8856
RightForeArm  9.66823 49.517 12.4531
RightHand  -0.386539 -3.78479 -27.4266
LeftUpLeg  -46.9588 -9.35014 24.332
LeftLeg  54.0204 3.22655 5.27474
LeftFoot  -11.1019 0.0789624 -5.9717
LeftToes  9.43379e-011 5.24309e-011 -4.66411e-011
